<svg width="170" height="34" xmlns="http://www.w3.org/2000/svg"><g fill="none" fill-rule="evenodd"><path d="M24.2874219 20.644h-5.0501953s.8088281-.3906667.8088281-1.786v-7.4586667c0-1.45199997-.9848047-2.1053333-2.0453125-2.43866663-.8944922-.274-2.0207422.02533333-2.6794922.4-1.1202734.63866666-2.2797266 1.21200003-3.4351953 1.79400003V4.338c0-1.20066667-.1421094-1.36933333-.3878125-1.71933333L16.1234375.29v7.98333333c1.625625-.676 3.5905859-2.33066666 5.7341797-1.506C22.8005859 7.132 24.2874219 8.364 24.2874219 9.95066667V20.644" fill="#FFFFFE"/><path d="M.03984375 5.12600033H16.1267757V20.6440003H.03984375z"/><path d="M16.1267578 18.156667c0 1.0773333-.5119922 2.4873333-1.8660156 2.4873333h-2.3746875l-.0053125-9.15666663s1.7019922-.00133334 2.2279297 0c1.1189453 0 2.0227343.61133333 2.0180859 2.12666666V18.156667M7.95878906 20.6440003H0c1.13621094-1.452 6.71898437-9.7533333 7.95878906-15.51799997V20.6440003M42.6401172 6.80866667c.8134766 0 1.6887109.33866666 2.0625781.942.5246094 1.162.541211 2.73533333-.0484766 3.85200003-.5438671.7313333-1.466914 1.1006666-2.3242187 1.334 1.0571875.2413333 2.4344531.0586666 2.9411328 1.222.6169141 1.6886666.5179688 3.736-.3014844 5.2626666C44.2139453 20.5766667 42.9064062 20.646 41.6260938 20.646h-7.203086V8.58866667c0-.65-.4489062-1.384-.7882422-1.78h9.0053516zM41.5855859 14.888c-.2257812-.622-.648789-.6366667-1.4363671-.708-1.0558594-.028-1.8713282.1746667-1.8713282 1.0026667V18.332c0 1.2446667 1.9842188.9593333 2.7538672.6873333.5246094-.2366666.7185156-1.028.7636719-1.3353333.0504687-1.1653333.138789-1.8933333-.2098438-2.796zm-3.3076953-5.97533333V12.12c0 .846 1.6482031.4926667 2.2086719.1993333 1.0830859-.6626666.9004687-2.1493333.7603516-3.1653333-.0710547-.454-.4150391-.77466667-.8719141-.87666667-.6474609-.042-2.0134375-.35333333-2.0971094.63533334zM116.420117 20.6326667v-6.2493334h-3.961133v4.898c0 .786.547188 1.3513334.547188 1.3513334h-4.426641V8.162c0-.62133333-.702578-1.35533333-.702578-1.35533333h4.582031V12.424l3.961133.0133333V8.162c0-.63533333-.561797-1.35533333-.561797-1.35533333h4.44125V19.2813333c0 .786.561797 1.3513334.561797 1.3513334h-4.44125M48.9394141 12.0046667c.7703125-.52 1.8016015-1.4633334 3.2226953-1.4633334h4.1796093v8.6413334c0 .7946666.6534375 1.4506666.6534375 1.4506666h-4.0149218V19.47c-1.2491016.5813333-2.7007422 1.7726667-4.2021875 1.144-2.0433203-1.1926667-1.7046485-3.8866667-1.6528516-6.0253333.0551172-1.1493334.9462891-1.9226667 1.8142188-2.584m2.2491797.36c-.6361719.1586666-.9250391 1.0046666-.9250391 1.402-.0810156 1.2206666-.137461 1.7666666-.0418359 3.126C50.46875 18.9073333 51.3964453 18.812 51.7371094 18.742c.425-.0546667 1.243125-.4926667 1.243125-1.522v-4.3173333c0-.494-.3127735-.5753334-.3127735-.5753334-.5252734-.0826666-.9768359-.1113333-1.4788671.0373334M96.8508594 11.132V9.72c-.0544531-1.52133333 3.2080856-2.43533333 5.1225786-3.15333333.652109-.188 1.604374-.34866667 2.057929.25733333.465508.50933333.604297 1.196.760352 1.86066667l-2.729297 1.16066666c-.150078-.59333333-.231094-1.35-.849336-1.62066666-.442266-.08133334-1.070469.27533333-1.070469 1.194V11.132h2.691445l-.930351 1.5786667h-1.761094V19.182c0 .8066667.600313 1.462.600313 1.462h-3.8920706v-7.9333333h-1.1056641L96.8508594 11.132M69.9310938 7.952l4.0441406-1.71333333V12.532s1.4609375-.96 2.3746875-1.5366667c2.3355078-1.45399997 3.7692187.7 3.2864453 2.3126667-.2370703.8846667-1.0379297 1.3286667-1.7398438 1.838-.244375.2286667.1334766.718.1334766.718l2.3361719 4.0306667c.3419922.5073333.7928906.7406666.7928906.7406666h-4.3150781l-2.3521094-4.6626666s.5066797-.316 1.0810938-.684c1.3254687-.9193334.7769531-1.974.4283203-2.112-.7092188-.2253334-1.2371485.3066666-1.7132813.7306666-.3951172.4473334-.3127734.9273334-.3127734 1.2566667v4.1533333c0 .7.6003125 1.318.6003125 1.318h-3.9212891V9.32266667c0-1-.723164-1.37066667-.723164-1.37066667M86.2796484 12.3366667c.8021875-.5753334 1.8919141-1.1666667 2.86875-1.6126667.8167969-.4893333 4.5441797-.79066667 5.3769141.6793333.65875 1.3786667.6169141 4.2086667.1746484 6.2086667-.1434375.4826667-.5040234 1.2606667-1.2783203 1.8086667-.9608984.7066666-3.283789 1.3806666-4.3170703 1.7273333-.574414.1733333-.9170703.1133333-1.349375.07-.5445312-.07-1.1753906-.258-1.8872656-.9873333C84.5842969 18.6293333 84.7908203 16.074 85.0378516 13.98c.1308203-.54.3373437-1.0813333 1.2417968-1.6433333m2.6960938.0293333c-.8765625.5993333-.7317969 1.93-.7882422 3.0366667.0710547.7926666-.1839453 2.8026666.8154687 3.7293333.6939454.4553333 1.8514063.13 2.21-.36.5890235-.7486667.5053516-2.364.5146485-3.6286667-.0092969-.982.0664062-2.2446666-.7085547-2.896-.61625-.3046666-1.5153906-.2186666-2.0433203.1186667M136.569766 10.4893333c-.353282.3813334-.274258.9746667-.108243 1.634 0 0 .681329 2.63 1.07711 4.3206667l1.775703-5.9546667h2.390625L144.063711 17.52s.343984-.5586667.51-.956c.901133-2.2073333.741094-3.6273333.277578-4.3013333-.214492-.2773334-.565117-.5106667-.88918-.6546667l2.211328-2c.623555.19266667 1.228516.6806667 1.498125 1.2866667.137461.4866666.087657 1.206-.133476 1.6986666l-2.91125 8.0433334h-3.031445L139.77918 15.042l-1.625625 5.5946667h-2.839532l-2.760507-10.1473334h4.01625M159.890977 5.926c.976835-.504 2.492226-1.35266667 3.299726-.546.435625.50933333.525938 1.46866667.137461 2.21066667-.69793 1.01466666-1.97957 1.486-3.214727 1.496-.37121-.04733334-.685976-.26266667-.844023-.63533334C158.938711 7.594 159.011094 6.424 159.890977 5.926M163.376641 9.57666667L163.381289 19.176c0 .8073333.573086 1.462.573086 1.462H159.885v-7.9346667c0-1.07-.620234-1.462-.620234-1.462l4.111875-1.66466663M61.9982031 9.866v1.9606667c1.5446094-.8313334 3.5673438-2.17000003 5.3822266-.904 1.0087109.6706666.9535937 1.946.9535937 3.0706666v5.444c0 .768.5478516 1.204.5478516 1.204h-3.9637891v-6.7306666c0-.632-.1480859-1.0953334-.5810547-1.314-.6308593-.214-1.3314453-.0553334-1.8162109.358-.2981641.2153333-.5226172.5573333-.5226172 1.1893333v5.2933333c0 .768.5451953 1.204.5451953 1.204h-3.8515625l.0126172-7.9086666C58.7190625 11.95 58.0204687 11.488 58.0204687 11.488l3.9777344-1.622M150.013047 12.0166667C150.783359 11.498 151.814648 10.552 153.235078 10.552h4.179609v8.6413333c0 .7953334.65543 1.4506667.65543 1.4506667h-4.01625V19.48c-1.249765.582-2.700742 1.7733333-4.202187 1.146-2.045313-1.1926667-1.706641-3.8866667-1.652852-6.026.053125-1.1506667.945625-1.922 1.814219-2.5833333m2.247187.36c-.634179.1606666-.923711 1.0033333-.923711 1.4-.083671 1.2206666-.136796 1.7686666-.041836 3.1266666.247032 2.016 1.175391 1.9186667 1.516055 1.852.424336-.0566666 1.243125-.494 1.243125-1.5233333v-4.3173333c0-.494-.313437-.5753334-.313437-.5753334-.52461-.084-.976836-.112-1.480196.0373334M123.947266 12.012c.768984-.5186667 1.801601-1.4653333 3.220703-1.4653333h4.181601V19.188c0 .796.65211 1.4506667.65211 1.4506667h-4.013594v-1.1633334c-1.251094.5813334-2.700742 1.7726667-4.202188 1.144-2.045312-1.19-1.705976-3.8866666-1.652851-6.024.053125-1.1506666.945625-1.922 1.814219-2.5833333m2.247187.3593333c-.63418.1606667-.923047 1.0033334-.923047 1.4006667-.084336 1.22-.137461 1.768-.041836 3.126.245039 2.0146667 1.174727 1.9206667 1.515391 1.8526667.423008-.0566667 1.243125-.4946667 1.243125-1.5233334v-4.318c0-.494-.312774-.5753333-.312774-.5753333-.525273-.084-.976835-.1113333-1.480859.0373333M165.688906 5.93266667c.978164-.504 2.494219-1.35333334 3.297735-.546.439609.50866666.529921 1.468.140781 2.21066666-.699258 1.014-1.978906 1.486-3.214063 1.49533334-.371211-.04666667-.685976-.264-.844687-.63533334C164.736641 7.6 164.809023 6.43 165.688906 5.93266667M169.17457 9.58266667l.004649 9.59600003c0 .812.573086 1.4653333.573086 1.4653333h-4.069375v-7.9346667c0-1.07-.620235-1.464-.620235-1.464l4.111875-1.66266663M1.86867187 33.7166667c-.08632812 0-.13679687-.044-.14875-.1313334 0-.0493333.01859375-.0946666.05578125-.1353333.0371875-.04.13347657-.0726667.28753907-.0973333.15605468-.0246667.25765625-.0526667.30746093-.084.13015625-.0873334.19457032-.358.19457032-.8126667v-4.4053333c0-.0373334-.02125-.07-.06441407-.098-.04316406-.028-.16402343-.0413334-.36191406-.0413334-.4409375 0-.74308594.0233334-.90710937.0693334-.1646875.0466666-.2975.1433333-.39976563.29C.73046875 28.416.61691406 28.658.49273438 28.994c-.0371875.1173333-.11820313.1833333-.24171876.1953333-.03121093 0-.06574218-.0106666-.10160156-.032C.1115625 29.1346667.09363281 29.1086667.09363281 29.078c0-.038.05710938-.324.17066406-.8593333.11554688-.5346667.18195313-.8273334.20054688-.8773334.0371875-.074.09628906-.112.17664062-.112.03121094 0 .0604297.0046667.08898438.0146667.02722656.0086667.05910156.0433333.09695312.102.0371875.0593333.07570313.0993333.11621094.1213333.03984375.022.08367188.034.13015625.0373334.04714844.0033333.08167969.0046666.10625.0046666l3.98902344-.018c.09296875 0 .18460937-.0126666.27425781-.038.08964844-.0246666.18195313-.062.27359375-.112.09363281-.0493333.14941406-.074.16734375-.074.03121094 0 .05445313.0133334.07039063.0413334.01527343.028.02324218.058.02324218.0886666 0 .1373334-.01992187.4286667-.06042968.8733334-.04050782.4446666-.07304688.704-.09761719.7793333-.02457031.074-.09296875.1173333-.20453125.13-.04316406 0-.07902344-.0106667-.10691406-.0326667-.02789063-.0213333-.04050782-.0686666-.03785157-.14.00398438-.0713333.0053125-.1133333.0053125-.1253333.00664063-.3306667-.05910156-.576-.19523437-.738-.13679688-.1613333-.41570312-.2426667-.83738281-.2426667l-.64015625.01c-.03121094 0-.06109375.0353334-.08898438.1073334-.02789062.0713333-.0425.2193333-.0425.4433333l-.00863281 4.2086667c0 .1746666.02324219.31.06972656.4066666.04648438.096.10492188.1613334.17664063.1953334.07105468.034.1859375.064.34332031.0886666.15871094.0246667.23773437.1.23773437.224 0 .0373334-.01394531.0686667-.04183593.0933334-.02789063.0246666-.06109375.038-.09761719.038l-1.29292969-.028-1.18933594.028M11.9830078 33.7166667c-.0869922 0-.1361328-.044-.149414-.1313334 0-.0493333.0192578-.0946666.0557812-.1353333.0378516-.04.1334766-.0726667.2882031-.0973333.1553906-.0246667.2576563-.056.307461-.094.1294921-.0866667.1952343-.342.1952343-.7646667v-3.79c0-.4293333-.0624218-.6873333-.1866015-.7746667-.0059766-.006-.0232422-.0153333-.0504688-.028-.0285547-.0126666-.10625-.0293333-.2324218-.0506666-.1275-.022-.2111719-.0406667-.2510157-.056-.0405078-.016-.0717187-.0426667-.0936328-.0793334-.02125-.038-.032539-.072-.032539-.1033333 0-.0366667.0132812-.07.0378515-.098.0245703-.028.0557813-.042.0929688-.042l1.254414.028 1.2557422-.028c.0371875 0 .0690625.014.0969531.042.0278907.028.041836.0613333.041836.098 0 .0246667-.0039844.0526667-.0139453.084-.0086328.0313333-.0305469.058-.0644141.0793333-.0345312.022-.1102344.0406667-.2277734.056-.1182032.016-.201875.036-.2516797.0606667-.0491407.0246667-.094961.056-.1348047.0933333-.0405078.0373334-.0750391.098-.10625.182-.0312109.084-.0471484.2006667-.0471484.3506667v1.4273333c0 .1246667.0126171.2073334.0378515.2473334.0245703.0406666.0677344.0606666.1294922.0606666h2.7239844c.1799609 0 .2696094-.0466666.2696094-.14V28.732c0-.454-.0624219-.7213333-.1852735-.8026667-.0066406-.006-.0232422-.0153333-.0511328-.028-.0278906-.0126666-.1055859-.0293333-.2330859-.0506666-.126836-.022-.2098438-.0406667-.2503516-.056-.0405078-.016-.0710547-.0426667-.0929687-.0793334-.0225782-.038-.0325391-.072-.0325391-.1033333 0-.0366667.0119531-.07.0365234-.098.0252344-.028.0557813-.042.0929688-.042l1.2557422.028 1.254414-.028c.0371875 0 .0697266.014.0982813.042.0278906.028.0411719.0613333.0411719.098 0 .0246667-.0046485.0526667-.0132813.084-.0099609.0313333-.0312109.058-.0657422.0793333-.0338672.022-.1102344.0406667-.2277734.056-.116875.016-.201211.036-.2510156.0606667-.0491407.0246667-.0942969.056-.1348047.0933333-.0398438.0373334-.0757032.098-.10625.182-.031211.084-.0464844.2006667-.0464844.3506667v4.162c0 .1746667.0245703.31.0737109.406.0498047.0966667.1089063.162.1773047.196.0677344.0346667.1819531.0626667.3433203.084.1620313.022.2423828.0953333.2423828.2193333 0 .0373334-.0146093.0686667-.0418359.0933334-.0285547.0246666-.0610937.038-.0976172.038l-1.2929297-.028-1.19.028c-.0863281 0-.1361328-.044-.1480859-.1313334 0-.0493333.0179297-.0946666.0557812-.1353333.0365235-.04.1328125-.0726667.2875391-.0973333.1553906-.0246667.2569922-.0526667.3074609-.084.1301563-.0873334.1945704-.358.1945704-.8126667v-1.4926667c0-.112-.0092969-.1906666-.0272266-.234-.0192578-.0433333-.0776953-.0653333-.1766406-.0653333h-2.7897266c-.1049219 0-.1580469.0373333-.1580469.112v1.904c0 .112.0146094.2193333.0425.322.0278907.1033333.0770313.1826667.148086.2386667.0717187.056.1739843.0926666.3074609.112.1328125.018.2211328.0433333.2649609.074.0431641.0313333.0644141.084.0644141.1586666 0 .0373334-.0132812.0686667-.0411719.0933334-.0278906.0246666-.0610937.038-.0976172.038l-1.2929296-.028-1.189336.028M24.9269141 33.7166667c-.0869922 0-.1361329-.044-.14875-.1313334 0-.068.0232421-.1193333.0697265-.1533333.0464844-.0346667.1441016-.0626667.2928516-.0846667.1480859-.0213333.2503516-.054.3061328-.098.1182031-.0873333.1773047-.358.1773047-.8113333v-3.6873333c0-.454-.0591016-.7246667-.1773047-.8113334-.0425-.0313333-.1427734-.0606666-.2968359-.0886666-.1553907-.028-.2556641-.0593334-.3021485-.094-.0464844-.034-.0697265-.082-.0697265-.1446667 0-.0366667.0126171-.07.0371875-.098.0245703-.028.0557812-.042.0929687-.042l1.2544141.028 3.6264453-.0086667c.0305469.6033334.0464844.9706667.0464844 1.1006667 0 .1186667-.020586.2073333-.0604297.266-.0405078.0593333-.0883203.0886667-.1441016.0886667-.0683984 0-.1241797-.0593334-.1673437-.1766667-.0936328-.2486667-.2071875-.438-.3439844-.5653333-.1361328-.1266667-.3008203-.2126667-.4927344-.2566667-.1925781-.0433333-.4615234-.0646667-.8088281-.0646667h-.9482813c-.0936328 0-.1394531.2046667-.1394531.6153334v1.55c0 .0993333.074375.1486666.223125.1486666l1.0226563-.0086666c.3280468 0 .5372265-.0486667.627539-.1446667.0896485-.0973333.1348047-.2386667.1348047-.4253333 0-.068.0152735-.1353334.0464844-.2006667.0312109-.0646667.0803516-.0973333.1480859-.0973333.0504688 0 .0936328.0226666.1308203.0693333.0365235.0473333.0557813.12.0557813.2193333l-.0278906.8026667.0278906.812c0 .0626667-.0139453.1246667-.0425.1873333-.0272266.0613334-.0750391.0926667-.1441016.0926667-.0491406 0-.0942968-.0246667-.1348047-.0746667-.0398437-.0493333-.0597656-.1246666-.0597656-.224 0-.174-.0345312-.3033333-.1022656-.3873333-.0683984-.084-.1553906-.1346667-.2609766-.154-.1049218-.0186667-.2755859-.028-.510664-.028l-.9110938-.0086667c-.14875 0-.223125.0493334-.223125.1486667v1.746c0 .2113333.0278906.3773333.0836719.4993333.0557812.1206667.1441016.1966667.2642969.228.1215234.0313334.2775781.0453334.4694922.042.191914-.0026666.3134375-.0046666.3632421-.0046666.3964454 0 .7032422-.026.9197266-.0793334.2171484-.0526666.4057422-.154.5671094-.3026666.1620312-.15.3200781-.3673334.4741406-.654.0996094-.18.180625-.2706667.2423828-.2706667.0431641 0 .0863281.0186667.1301563.056.0425.038.0650781.078.0650781.122 0 .056-.0325391.196-.0976172.42-.0650781.2233333-.1334766.4586667-.2051953.704-.0710547.246-.1122266.3873333-.1255078.4246667l-1.9516797-.018h-1.8965625l-1.1063281.028M43.4549219 33.7166667c-.0989453 0-.148086-.044-.148086-.1313334 0-.0493333.0166016-.0946666.0504688-.1353333.0345312-.04.1308203-.0726667.2888672-.0973333.1573828-.0246667.2649609-.0593334.3207422-.1033334.1235156-.0926666.1852734-.3606666.1852734-.8026666V28.732c0-.448-.0584375-.7153333-.1759766-.8026667-.0498047-.0373333-.1427734-.0653333-.2789062-.084-.1361328-.018-.2264453-.0386666-.2702735-.0606666-.043164-.0213334-.0723828-.048-.0876562-.0793334-.0159375-.0306666-.0232422-.062-.0232422-.0933333 0-.0366667.0099609-.07.031875-.098.0225781-.028.0511328-.042.0883203-.042l1.0970313.028 1.1999609-.0466667c.7005859 0 1.2371484.0693334 1.6123438.206.3751953.1366667.6448046.3413334.8094921.6153334.1640235.2746666.2463672.6006666.2463672.98 0 .206-.0378515.4153333-.1115625.63-.075039.2153333-.2091797.4186666-.4050781.6113333-.1952344.1933333-.4336328.336-.7158594.4293333-.2815625.094-.5564843.14-.8221093.14-.2297657 0-.4077344-.0213333-.5345704-.0653333-.1268359-.0433333-.1905859-.1026667-.1905859-.1766667 0-.044.0119531-.0793333.0371875-.1073333.0245703-.028.0604297-.0473333.1069141-.056.0464843-.01.0982812-.0126667.1580469-.01.0584374.0033333.0942968.0053333.1062499.0053333.1361329 0 .2742579-.0266666.413711-.0793333.1394531-.0533333.2689453-.148.3864844-.2853333.116875-.1366667.2051953-.3046667.2649609-.504.0584375-.1986667.0883203-.382.0883203-.5506667 0-.4606667-.1321484-.8086667-.3957812-1.0453333-.2629688-.236-.626875-.3546667-1.0923829-.3546667-.1666796 0-.2828906.022-.3486328.0653333-.0650781.0433334-.0969531.106-.0969531.1866667v4.592c0 .112.0139453.2193333.0411719.322.0285547.1033333.0776953.1826667.149414.2386667.0710547.056.1733204.0926666.3067969.112.1328125.018.2211328.0433333.264961.074.043164.0313333.0650781.084.0650781.1586666 0 .0373334-.0146094.0686667-.041836.0933334-.0285546.0246666-.0610937.038-.0976171.038l-1.2929297-.028-1.19.028M56.1810156 30.4773333c.5757422 0 .9788282-.1006666 1.2085938-.3033333.2291015-.202.3433203-.5206667.3433203-.9566667 0-.4353333-.126836-.7713333-.3811719-1.0073333-.2543359-.2373333-.5976562-.3546667-1.0319531-.3546667-.2908594 0-.4369531.084-.4369531.2513334v1.97c0 .124.0205859.2226666.0604296.2933333.0405079.0713333.1195313.1073333.2377344.1073333zm3.0121875 3.2853334c-.6388281 0-1.0664844-.174-1.2836328-.522-.0126172-.0126667-.0232422-.03-.032539-.0513334-.0086329-.0226666-.2231251-.4186666-.6414844-1.1906666-.4176953-.7713334-.6866406-1.16-.8041797-1.1666667l-.1766406-.0086667c-.2410547 0-.3619141.04-.3619141.1206667v1.522c0 .4473333.0650781.712.1945703.7926667.0378516.0253333.1401172.0546666.3074609.0886666.1673438.0346667.2629688.0733334.2875391.1173334.0252344.0433333.0378516.084.0378516.1206666 0 .0373334-.0139453.0686667-.041836.0933334-.0278906.0246666-.0604297.038-.0982812.038l-1.2916016-.028-1.190664.028c-.0869922 0-.1361329-.044-.148086-.1313334 0-.0493333.0185938-.0946666.0557813-.1353333.0365234-.04.1341406-.0713333.2928515-.0933333.1573829-.022.2583204-.048.3021485-.0793334.1301562-.0873333.1952343-.3606666.1952343-.8213333v-3.724c0-.454-.0650781-.7246667-.1952343-.812-.0066407-.006-.0239063-.0153333-.0511328-.028-.0278907-.012-.1341407-.0326667-.3167579-.0606667-.1826171-.028-.2735937-.1006666-.2735937-.2193333 0-.0366667.0099609-.07.0325391-.098.02125-.028.0504687-.042.0883203-.042l1.264375.028 1.1149609-.0366667c.7749609 0 1.3825781.138 1.8228516.4153334.4396093.2766666.6600781.6826666.6600781 1.2173333 0 .1933333-.0391797.378-.116875.5553333-.0770313.1773334-.1839453.3233334-.3200781.4386667-.1367969.1153333-.2901953.2213333-.4608594.318-.17.096-.2676172.1566667-.2928516.1813333-.0245703.0253334-.0365234.044-.0365234.056.2908594.5853334.669375 1.2413334 1.1335547 1.9693334.1115625.1806666.2364062.33.3725391.448.1361328.1186666.3771874.2273333.7244921.3266666.0989453.0313334.158711.056.1766407.0753334.0185937.018.0285546.0366666.0285546.056 0 .0433333-.0484765.0853333-.1447656.1253333-.095625.0413333-.2304297.0706667-.40375.0886667-.1739844.0186666-.3101172.028-.4090625.028zM66.0018359 33.7166667c-.0365234 0-.0697265-.0133334-.0976172-.038-.0278906-.0246667-.0411718-.056-.0411718-.0933334 0-.068.0232422-.1193333.0690625-.1533333.0464844-.0346667.1427734-.0613333.2888672-.0793333.1447656-.0193334.2463671-.0506667.3021484-.094.1175391-.0933334.1759766-.3513334.1759766-.7746667v-3.78c0-.4226667-.0584375-.678-.1759766-.7646667-.0444922-.0313333-.1427734-.0606666-.2981641-.0886666-.1547265-.028-.255664-.0593334-.3021484-.094-.0464844-.034-.0690625-.082-.0690625-.1446667 0-.0366667.0119531-.07.0365234-.098.0245704-.028.0557813-.042.0929688-.042l1.2557422.028 1.254414-.028c.0371875 0 .0697266.014.0976172.042.0278907.028.0425.0613333.0425.098 0 .0626667-.0239062.1106667-.0703906.1446667-.0464844.0346666-.1454297.0673333-.2968359.0986666-.1527344.0306667-.2503516.0613334-.2935157.0926667-.117539.1-.1759765.3613333-.1759765.784v3.9386667c0 .1746666.0232422.31.0690625.4066666.0464844.096.1055859.1613334.1773047.1953334.0703906.034.1852734.064.3433203.0886666.1587109.0246667.2377343.1.2377343.224 0 .0373334-.0146093.0686667-.0425.0933334-.0278906.0246666-.0597656.038-.0976171.038l-1.2916016-.028-1.1906641.028M77.7145703 33.912c-.0245703 0-.0617578-.0246667-.1115625-.0746667-.0491406-.0493333-.1128906-.1566666-.1905859-.3213333-.0776953-.1653333-.159375-.3673333-.2463672-.6066667-.0869922-.24-.1328125-.3693333-.1387891-.3873333l-1.4044922-3.538c-.0059765-.018-.0338672-.0913333-.0830078-.2186667-.0498047-.128-.1055859-.2573333-.1673437-.3873333-.0624219-.1313333-.1228516-.234-.1812891-.3086667-.0591016-.074-.1102344-.1246666-.1533984-.1493333-.031211-.0186667-.1348047-.0446667-.3121094-.0793333-.1759766-.034-.2789063-.0726667-.3067969-.1166667-.0278906-.0433333-.0411719-.0806667-.0411719-.112 0-.0366667.0119532-.07.0371875-.098.0252344-.028.0557813-.042.0923047-.042l1.33875.028 1.2550782-.028c.0378515 0 .0703906.0126667.0976171.0373333.0285547.0253334.041836.056.041836.094 0 .0306667-.0053125.0613334-.0185938.0926667-.0119531.0313333-.0338672.0546667-.0650781.0706667-.0305469.0153333-.0989453.034-.2045312.056-.1049219.0213333-.1753125.0506666-.2091797.0886666-.0332032.0366667-.0617578.0806667-.0836719.13-.02125.05-.031875.1213334-.031875.2146667 0 .1933333.0584375.4386667.1766406.738l1.2829688 3.238c.6753515-1.6426667 1.0917187-2.702 1.2504297-3.178.1580468-.4753333.2370703-.77.2370703-.882 0-.1866667-.0976172-.2966667-.2928516-.3313333-.1952344-.034-.3054687-.0693334-.3300391-.1073334-.0252343-.0373333-.0371875-.0773333-.0371875-.1213333 0-.0366667.0132813-.07.0411719-.098.0278906-.028.0610938-.042.0976172-.042l.976836.028 1.0591796-.028c.0378516 0 .0683985.014.0936329.042.0245703.028.0371875.0613333.0371875.098 0 .056-.0245704.1033333-.0750391.14-.0491406.0373333-.1467578.0686667-.2921875.0933333-.1460938.0253334-.2377344.05-.2742578.0746667-.0438282.0246667-.0936328.0753333-.1494141.1493333-.0557812.0746667-.1162109.1786667-.180625.3133334-.0657422.1333333-.1241797.264-.1773047.3913333-.0524609.128-.0816797.2006667-.0883203.22l-.956914 2.2393333C78.4616406 32.522 78.0738281 33.384 77.8639844 33.8186667c-.0132813.0186666-.0325391.0386666-.0610938.0613333-.0272265.0213333-.0571094.032-.0883203.032M88.8588672 30.8233333c.0929687 0 .1580469-.0246666.1952344-.0753333l-.6786719-1.782-.6414844 1.7073333c.0185938.094.0770313.14.1766406.14l.9482813.01zm-3.4398438 2.8933334c-.0869922 0-.1361328-.0473334-.14875-.14 0-.0626667.0245704-.112.074375-.15.0498047-.0373334.1500782-.0686667.3021485-.0933334.1514062-.0246666.2463672-.0493333.2828906-.0746666.0438281-.0246667.0949609-.074.1540625-.1493334.0591016-.0746666.1195313-.1766666.1812891-.308.0617578-.1306666.117539-.2593333.1673437-.3873333.0491406-.1273333.0770313-.2.0836719-.2193333l.9110937-2.23c.0059766-.0126667.0139454-.0313334.0225782-.056.0099609-.0246667.0657422-.1593334.1673437-.402.1029297-.2426667.2032031-.502.3021485-.7793334.0996093-.2766666.1693359-.51.2098437-.7.0398437-.1893333.0511328-.3313333.0325391-.424L88.7008203 27.22c.0126172-.012.0292188-.0153333.0504688-.0086667.0225781.006.0391797.0153334.0517968.028.0245704.018.2171485.494.5764063 1.4273334L90.7926172 32.186c0 .0053333.0046484.018.0139453.0366667.0092969.0193333.0478125.12.1162109.3033333.0677344.184.1407813.3426667.2184766.476.0770313.134.1533984.2226667.2277734.2666667.031211.018.1348047.0433333.3114454.074.1766406.0313333.2789062.07.3061328.1173333.0278906.046.0425.0853333.0425.1166667.0059765.0366666-.0046485.0693333-.0325391.0973333-.0278906.028-.0604297.0426667-.0976172.0426667l-1.33875-.028-1.2557422.028c-.0365234 0-.0690625-.0146667-.0969531-.0426667-.0278906-.028-.0425-.0606667-.0425-.0973333 0-.0313334.0066406-.0626667.0192578-.094.0119531-.0306667.0345313-.054.0644141-.07.0312109-.0153334.0996093-.034.2051953-.056.1049219-.022.1753125-.05.2085156-.084.0345313-.034.0624219-.0746667.0836719-.1213334.0225781-.046.0332031-.1166666.0332031-.21 0-.1493333-.0338672-.33-.1022656-.5413333-.0683985-.2106667-.14875-.4333333-.2417188-.6673333-.0929687-.2333334-.1520703-.3806667-.1766406-.4433334-.223125-.062-.7125391-.074-1.4689062-.0373333-.1547266.0126667-.2576563.0346667-.3067969.0653333-.2789063.7093334-.4416016 1.1486667-.4880859 1.3166667-.0464844.1673333-.0703907.2953333-.0703907.3826667 0 .186.0982813.2966666.2935156.3306666.1952344.0346667.3054688.07.3300391.1073334.0245703.038.0371875.078.0371875.122 0 .0366666-.0139453.0693333-.0418359.0973333-.0278906.028-.0604297.0426667-.0976172.0426667l-.9761719-.028-1.0505469.028zM98.5621484 33.7166667c-.0869922 0-.1367968-.044-.149414-.1313334 0-.0493333.0192578-.0946666.0557812-.1353333.0378516-.04.1334766-.0726667.2888672-.0973333.1540625-.0246667.2569922-.0526667.3067969-.084.1294922-.0873334.1952344-.358.1952344-.8126667v-4.4053333c0-.0373334-.0225782-.07-.0657422-.098-.0431641-.028-.1640235-.0413334-.3625781-.0413334-.4396094 0-.7417579.0233334-.9057813.0693334-.1646875.0466666-.2975.1433333-.4004297.29-.1022656.1453333-.2151562.3873333-.3386719.7233333-.0378515.1173333-.1182031.1833333-.2423828.1953333-.0312109 0-.064414-.0106666-.1022656-.032-.0371875-.0226666-.0557813-.0486666-.0557813-.0793333 0-.038.0577735-.324.1726563-.8593333.1142188-.5346667.180625-.8273334.1998828-.8773334.0365235-.074.095625-.112.1759766-.112.0312109 0 .0604297.0046667.0883203.0146667.0278906.0086667.0610937.0433333.0982812.102.0365235.0593333.0757032.0993333.1155469.1213333.0405078.022.0836719.034.1308203.0373334.0458203.0033333.0816797.0046666.1069141.0046666l3.9883593-.018c.092305 0 .183945-.0126666.274258-.038.088984-.0246666.180625-.062.274258-.112.092304-.0493333.148086-.074.167343-.074.030547 0 .053789.0133334.069063.0413334.015937.028.023242.058.023242.0886666 0 .1373334-.019922.4286667-.059765.8733334-.040508.4446666-.073711.704-.098282.7793333-.02457.074-.092969.1173333-.204531.13-.043164 0-.079023-.0106667-.106914-.0326667-.027891-.0213333-.039844-.0686666-.036524-.14.002657-.0713333.004649-.1133333.004649-.1253333.005312-.3306667-.059102-.576-.195234-.738-.136797-.1613333-.415704-.2426667-.836719-.2426667l-.642149.01c-.031211 0-.060429.0353334-.08832.1073334-.027891.0713333-.041172.2193333-.041172.4433333l-.009961 4.2086667c0 .1746666.023242.31.070391.4066666.046484.096.104922.1613334.175976.1953334.071719.034.185938.064.344649.0886666.157383.0246667.236406.1.236406.224 0 .0373334-.013281.0686667-.041172.0933334-.02789.0246666-.060429.038-.098281.038l-1.2916016-.028-1.19.028M108.67582 33.7166667c-.086992 0-.136133-.044-.148086-.1313334 0-.068.023243-.1193333.069063-.1533333.047148-.0346667.144101-.0626667.293515-.0846667.148086-.0213333.251016-.054.306797-.098.116875-.0873333.175977-.358.175977-.8113333v-3.6873333c0-.454-.059102-.7246667-.175977-.8113334-.043828-.0313333-.142773-.0606666-.298164-.0886666-.154726-.028-.255-.0593334-.302148-.094-.04582-.034-.069063-.082-.069063-.1446667 0-.0366667.011953-.07.036524-.098.02457-.028.055781-.042.092969-.042l1.255742.028 3.625781-.0086667c.030547.6033334.046484.9706667.046484 1.1006667 0 .1186667-.020586.2073333-.061093.266-.039844.0593333-.088321.0886667-.144102.0886667-.067734 0-.123516-.0593334-.167344-.1766667-.092304-.2486667-.207187-.438-.34332-.5653333-.136797-.1266667-.30082-.2126667-.492734-.2566667-.191914-.0433333-.462188-.0646667-.808829-.0646667h-.948945c-.092969 0-.139453.2046667-.139453.6153334v1.55c0 .0993333.074375.1486666.223125.1486666l1.022656-.0086666c.328711 0 .537891-.0486667.627539-.1446667.089649-.0973333.135469-.2386667.135469-.4253333 0-.068.015274-.1353334.046484-.2006667.030547-.0646667.080352-.0973333.14875-.0973333.049141 0 .092305.0226666.130157.0693333.036523.0473333.055781.12.055781.2193333l-.027891.8026667.027891.812c0 .0626667-.014609.1246667-.0425.1873333-.027891.0613334-.075703.0926667-.143438.0926667-.050468 0-.09496-.0246667-.135468-.0746667-.039844-.0493333-.059766-.1246666-.059766-.224 0-.174-.034531-.3033333-.10293-.3873333-.067734-.084-.154726-.1346667-.259648-.154-.10625-.0186667-.27625-.028-.511992-.028l-.911094-.0086667c-.14875 0-.223125.0493334-.223125.1486667v1.746c0 .2113333.027891.3773333.083672.4993333.055781.1206667.144766.1966667.265625.228.120195.0313334.277578.0453334.469492.042.191914-.0026666.312109-.0046666.361914-.0046666.39711 0 .703906-.026.920391-.0793334.217148-.0526666.406406-.154.567773-.3026666.160703-.15.31875-.3673334.474141-.654.098945-.18.179297-.2706667.241719-.2706667.0425 0 .086328.0186667.129492.056.043828.038.065742.078.065742.122 0 .056-.033203.196-.098281.42-.064414.2233333-.132813.4586667-.203867.704-.071719.246-.113555.3873333-.126172.4246667l-1.95168-.018h-1.897227l-1.106328.028M129.891289 33.3426667c.421016 0 .742422-.118.962227-.354.219804-.2373334.330039-.57.330039-.9986667 0-.5046667-.144102-.8766667-.432305-1.116-.288203-.2393333-.773633-.3586667-1.454961-.3586667-.12418 0-.207852.0166667-.251016.0506667-.043164.0346667-.065078.0826667-.065078.1453333v1.5673334c0 .2993333.023243.52.069727.6626666.046484.1433334.134805.2466667.264297.308.13082.0626667.322734.0933334.57707.0933334zm-.725156-3.182c1.114961 0 1.673437-.3766667 1.673437-1.13 0-.2486667-.06375-.46-.190586-.6346667-.126836-.174-.305468-.308-.53457-.4006667-.229101-.094-.483437-.14-.762344-.14-.118203 0-.209179.0153334-.274257.046-.065743.0313334-.097618.0993334-.097618.2053334v1.904c0 .0873333.061758.1373333.185938.15zm.660078 3.5646666l-1.431719-.0366666-1.19.028c-.092969 0-.139453-.0473334-.139453-.14 0-.0626667.023242-.1106667.069727-.1446667.046484-.0346667.144101-.0626667.292851-.0846667.14875-.0213333.241719-.0453333.278906-.07.130157-.0806666.195235-.3546666.195235-.8213333v-3.724c0-.46-.065078-.7313333-.195235-.812-.005976-.006-.023906-.0153333-.051796-.028-.027891-.012-.132813-.0326667-.31543-.0606667-.183281-.028-.274258-.1006666-.274258-.2193333 0-.0366667.010625-.07.032539-.098.021914-.028.051133-.042.087656-.042l1.245782.028 1.311523-.028c.545195 0 .98082.0593333 1.306211.1773333.325391.1186667.560469.2866667.706563.5046667.145429.2173333.217812.476.217812.774 0 .5786667-.390469 1.0173333-1.170742 1.3166667 1.05918.3046666 1.589765.8586666 1.589765 1.6613333 0 .5846667-.223125 1.034-.670039 1.348-.445586.3146667-1.078437.4713333-1.895898.4713333z" fill="#FFFFFE"/><g><path d="M137.769063 27.20794923h19.5739063v6.7920511H137.769063z"/><path d="M141.35699269 30.82333367c.09363281 0 .15804687-.02466667.19523437-.07533334l-.67800781-1.782-.64148437 1.70733334c.01792968.094.07703124.14.17597656.14l.94828125.01zM137.917813 33.716667c-.08699219 0-.13679688-.04733333-.14875-.14 0-.06266667.02457031-.112.07371094-.15.04980468-.03733333.15074218-.06866667.30214843-.09333333.15207032-.02466667.2463672-.04933334.2835547-.07466667.04316405-.02466667.09496093-.074.15339843-.14933333.05910156-.07466667.11953125-.17666667.18195313-.308.06175781-.13066667.11753906-.25933334.16734374-.38733334.04914063-.12733333.07703126-.2.08367188-.21933333l.91109375-2.23c.00597656-.01266667.01328125-.03133333.02257813-.056.00996093-.02466667.06574218-.15933333.16734374-.402.10226563-.24266667.20320313-.502.30214844-.77933333.09960938-.27666667.16933594-.51.20984375-.7.03984375-.18933334.05113282-.33133334.031875-.424l.53988281-.38333334c.01195313-.012.02921876-.01533333.05046876-.00866666.02191406.006.03917968.01533333.05113281.028.02457031.018.21714844.494.57640625 1.42733333l1.413125 3.51933333c0 .00533334.00464844.018.01460937.03666667.00863281.01933333.0478125.12.11621094.30333333.06773438.184.14078125.34266667.21847656.476.07703125.134.15273438.22266667.22710938.26666667.03121094.018.13546875.04333333.31144531.074.17730469.03133333.27890625.07.30679688.11733333.02789062.046.04249999.08533334.04249999.11666667.00531251.03666667-.00464843.06933333-.03253906.09733333-.02789062.028-.06042968.04266667-.09828125.04266667l-1.33808593-.028-1.25574219.028c-.0371875 0-.0690625-.01466667-.09695313-.04266667-.02789062-.028-.0425-.06066666-.0425-.09733333 0-.03133333.00664063-.06266667.01859375-.094.01261719-.03066667.03453125-.054.06507813-.07.03121094-.01533333.09960937-.034.20519531-.056.10492187-.022.17464844-.05.20851563-.084.03453124-.034.06242187-.07466667.08367187-.12133333.02191406-.046.03320312-.11666667.03320312-.21 0-.14933334-.03453124-.33-.10226562-.54133334-.06839844-.21066666-.14875-.43333333-.24238281-.66733333-.09230469-.23333333-.15140625-.38066667-.17597656-.44333333-.223125-.062-.71320313-.074-1.46890625-.03733334-.15539063.01266667-.25765625.03466667-.30679688.06533334-.27890625.70933333-.44160156 1.14866666-.48808594 1.31666666-.04714843.16733334-.07039062.29533334-.07039062.38266667 0 .186.09828125.29666667.29285156.33066667.19523437.03466666.30546875.07.33070313.10733333.02457031.038.03652343.078.03652343.122 0 .03666667-.01328125.06933333-.04117187.09733333-.02789063.028-.06042969.04266667-.09828125.04266667l-.97550781-.028-1.05054688.028zM156.1157818 33.958667l-.4920704-.56933333-2.6130859-3.08-.9389844-1.10133334c-.2164843-.26133333-.3592578-.426-.4276562-.494-.0119531.056-.0185938.18933334-.0185938.40066667l.0092969 3.08c0 .40466667.0511328.69066667.1533984.85866667.1029297.168.2623047.27133333.4787891.308.1301563.02466666.2138281.05266666.2510156.084.0371875.03133333.0557813.078.0557813.14 0 .03733333-.0159375.06866666-.0464844.09333333-.0305469.02466667-.0683984.038-.1108984.038l-1.0605078-.028-1.0505469.028c-.0371875 0-.0717188-.01466667-.1022656-.04266667-.0305469-.028-.0498047-.06066666-.0551172-.09733333 0-.06266667.0179297-.108.0551172-.136.0371874-.028.1208593-.05133333.2510156-.07.2111719-.03733333.3685547-.138.4741406-.30333333.1049219-.16466667.1607031-.456.1673438-.87266667l.0278906-3.28466667v-.14466666-.25733334c0-.09866666-.0152735-.20066666-.0464844-.30333333-.0312109-.102-.0949609-.18466667-.1905859-.24733333-.0962891-.062-.2277735-.10533334-.3951172-.13-.0929688-.01266667-.1686719-.03133334-.2277735-.056-.0591015-.02533334-.0883203-.07866667-.0883203-.15933334 0-.03666666.0152735-.07.0464844-.098.0312109-.028.0650781-.042.1022656-.042l1.0691407.028c.1553906 0 .3871484-.012.6972656-.03666666 0 .00533333.0059765.018.0192578.03666666.0119531.01933334.0478125.07533334.10625.168.0591015.09333334.2105078.29133334.4555469.59266667.244375.302.5146484.62666667.8088281.97533333.2941797.34866667.5657812.66466667.8141406.948.2476953.28333334.4741406.54266667.6780078.77933334.2045313.236.4183594.48.6414844.732.223125.252.3413281.38733333.3532812.40666666l.0092969-.206-.0179297-3.08c0-.28-.0258984-.484-.075039-.61133333-.0498047-.12666667-.116211-.21733333-.1998828-.27-.0836719-.05266667-.1713282-.086-.264961-.09866667-.1294922-.02466666-.213164-.054-.2510156-.08866666-.0371875-.034-.0557812-.08266667-.0557812-.144 0-.038.0146093-.06866667.0425-.094.0278906-.02466667.0630859-.03733334.106914-.03733334l.9662109.028.9668751-.028c.0371874 0 .0710546.014.1022656.042.0312109.028.0464843.06133334.0464843.098 0 .044-.0106249.084-.031875.12133334-.0225781.038-.1135546.066-.2742578.084-.0690625.01266666-.1374609.03666666-.2051953.07-.0683984.03466666-.1268359.084-.1766406.14933333-.0498047.066-.0883203.15133333-.1155469.25733333-.0278906.10533334-.0425.33933334-.0425.7l-.0278906 4.81533334c0 .06866666-.0478125.12333333-.1441016.16333333-.095625.04066667-.1660156.036-.2091796-.014" fill="#FFFFFE"/></g><path d="M167.099375 33.7253333c-.012617 0-.032539-.0086666-.06043-.028-.02789-.0186666-.041836-.062-.041836-.1306666 0-.056.016602-.1006667.051133-.1346667.033203-.0346667.116875-.0613333.251016-.0793333.133476-.0193334.199219-.056.199219-.112 0-.1246667-.238399-.468-.71586-1.032-.476797-.5626667-1.022656-1.168-1.63625-1.8153334l1.59043-1.3906666c.49539-.4166667.74375-.7306667.74375-.9426667 0-.118-.076367-.2006667-.228438-.2473333-.151406-.046-.238398-.084-.259648-.112-.021914-.028-.032539-.054-.032539-.0793334 0-.0426666.018594-.0793333.055781-.1073333.037188-.028.080352-.042.130156-.042l1.134219.028 1.059844-.028c.055781 0 .106914.0093333.152734.028.047149.0193333.070391.0526667.070391.1033333 0 .1053334-.090313.1733334-.26961.2046667-.17996.0246667-.345976.0626667-.497382.112-.152071.05-.342657.1586667-.571758.3266667-.12418.0933333-.299492.232-.525274.4153333-.226445.184-.711211.6053333-1.454961 1.2646667L167.898906 31.896c.030547.0313333.170664.1993333.41836.504.247695.3053333.44625.5326667.594336.6813333.062421.056.192578.1233334.391132.2006667.197891.078.326719.132.385157.1633333.059101.0313334.088984.0653334.088984.1033334 0 .0433333-.018594.082-.055781.116-.037852.034-.077696.052-.121524.052l-1.068476-.028-1.431719.0366666zm-3.755938-.0086666c-.037187 0-.069726-.0133334-.097617-.038-.02789-.0246667-.041836-.056-.041836-.0933334 0-.068.023243-.1193333.069727-.1533333.04582-.0346667.142109-.0613333.288203-.0793333.144766-.0193334.246367-.0506667.302148-.094.11754-.0933334.175977-.3513334.175977-.7746667v-3.78c0-.4226667-.058437-.678-.175977-.7646667-.043828-.0313333-.142773-.0606666-.2975-.0886666-.15539-.028-.255664-.0593334-.302812-.094-.04582-.034-.069063-.082-.069063-.1446667 0-.0366667.012618-.07.037188-.098.02457-.028.055781-.042.092305-.042l1.255742.028 1.255078-.028c.037187 0 .069727.014.097617.042.027891.028.041836.0613333.041836.098 0 .0626667-.023906.1106667-.069726.1446667-.046485.0346666-.146094.0673333-.2975.0986666-.152071.0306667-.249688.0613334-.293516.0926667-.116875.1-.175977.3613333-.175977.784v3.9386667c0 .1746666.023243.31.069063.4066666.047148.096.105586.1613334.177305.1953334.071054.034.185937.064.34332.0886666.158711.0246667.237734.1.237734.224 0 .0373334-.014609.0686667-.0425.0933334-.02789.0246666-.059765.038-.096953.038l-1.292266-.028-1.19.028z" fill="#FFFFFE"/></g></svg>