<svg xmlns="http://www.w3.org/2000/svg" width="160" height="20" viewBox="0 0 160 20">
    <g fill="#FFF" fill-rule="evenodd">
        <path d="M5.527 4.929v3.87c0 1.025 1.96.6 2.63.241 1.293-.796 1.072-2.595.905-3.818-.086-.548-.495-.936-1.036-1.058-.776-.051-2.399-.43-2.499.765zm3.936 7.216c-.27-.753-.77-.772-1.709-.856-1.255-.033-2.227.214-2.227 1.21v3.807c0 1.5 2.364 1.162 3.28.83.623-.286.859-1.244.909-1.613.062-1.408.17-2.286-.253-3.378zm1.257-9.757c.971 0 2.01.41 2.46 1.139.622 1.402.643 3.303-.059 4.653-.648.885-1.747 1.326-2.772 1.61 1.259.292 2.898.07 3.506 1.475.732 2.04.617 4.512-.361 6.356-.9 1.4-2.457 1.483-3.98 1.483H.938V4.538c0-.784-.533-1.673-.937-2.15h10.72zM97.515 19.104v-7.558H92.9v5.92c0 .958.637 1.638.637 1.638h-5.156V4.023c0-.747-.819-1.635-.819-1.635H92.9v6.787l4.615.02V4.023c0-.767-.653-1.635-.653-1.635h5.17v15.079c0 .957.655 1.637.655 1.637h-5.172M20.872 9.29c-.766.184-1.114 1.169-1.114 1.634-.098 1.422-.166 2.058-.049 3.639.296 2.349 1.414 2.234 1.824 2.157.512-.063 1.496-.574 1.496-1.773V9.914c0-.57-.379-.67-.379-.67-.63-.095-1.172-.13-1.778.047zm-2.707-.42c.927-.609 2.17-1.706 3.88-1.706h5.028V17.23c0 .926.788 1.69.788 1.69h-4.832v-1.353c-1.504.675-3.249 2.06-5.058 1.332-2.457-1.39-2.05-4.526-1.988-7.019.065-1.34 1.14-2.24 2.182-3.01zM74.502 7.942V6.288c-.064-1.787 3.67-2.86 5.857-3.701.746-.22 1.838-.407 2.356.303.532.597.689 1.402.867 2.183L80.46 6.434c-.168-.693-.26-1.584-.97-1.901-.505-.096-1.222.323-1.222 1.399v2.01h3.077l-1.064 1.85h-2.013v7.596c0 .948.685 1.716.685 1.716h-4.45V9.792h-1.268l1.268-1.85M42.985 4.647L47.86 2.66v7.309s1.76-1.116 2.866-1.785c2.811-1.686 4.54.81 3.961 2.682-.289 1.03-1.253 1.544-2.1 2.134-.295.266.16.834.16.834l2.816 4.678c.412.59.954.864.954.864h-5.2l-2.832-5.413s.61-.368 1.3-.799c1.595-1.064.94-2.29.517-2.446-.853-.267-1.49.354-2.063.848-.479.518-.38 1.075-.38 1.458v4.821c0 .812.724 1.531.724 1.531h-4.726V6.245c0-1.165-.872-1.598-.872-1.598M65.334 9.543c-1.03.697-.859 2.245-.925 3.534.084.922-.216 3.262.959 4.339.813.53 2.17.154 2.591-.418.69-.87.593-2.752.606-4.224-.013-1.14.08-2.61-.833-3.366-.721-.358-1.776-.256-2.398.135zm-3.161-.034c.942-.671 2.22-1.358 3.363-1.877.963-.569 5.339-.92 6.314.79.772 1.604.722 4.898.205 7.227-.167.56-.594 1.466-1.502 2.103-1.127.821-3.858 1.607-5.067 2.012-.671.202-1.077.134-1.582.084-.64-.084-1.38-.302-2.217-1.154-1.504-1.864-1.264-4.833-.973-7.271.153-.632.395-1.26 1.459-1.914zM120.85 7.383c-.41.437-.315 1.126-.126 1.886 0 0 .784 3.037 1.244 4.992l2.046-6.878h2.753l2.715 8.12s.402-.645.59-1.103c1.039-2.552.856-4.194.32-4.97-.246-.32-.648-.586-1.024-.754l2.55-2.308c.713.22 1.417.785 1.724 1.483.161.56.101 1.395-.154 1.964l-3.352 9.29h-3.498l-2.093-6.464-1.87 6.463H119.4l-3.18-11.72h4.63M148.26 1.04c1.214-.593 3.097-1.603 4.1-.644.538.598.654 1.733.171 2.614-.864 1.198-2.462 1.755-3.994 1.766-.46-.057-.851-.31-1.047-.748-.41-1.014-.323-2.4.77-2.988M152.153 5.572l.003 11.739c0 .99.68 1.793.68 1.793H148V9.396c0-1.308-.736-1.788-.736-1.788l4.89-2.036M33.32 6.368v2.318c1.819-.984 4.188-2.568 6.314-1.069 1.185.79 1.12 2.3 1.12 3.627v6.435c0 .907.639 1.425.639 1.425H36.75v-7.956c0-.747-.175-1.297-.684-1.553a2.202 2.202 0 0 0-2.13.422c-.348.254-.615.662-.615 1.404v6.258c0 .907.643 1.425.643 1.425H29.45l.014-9.35c.015-.925-.806-1.472-.806-1.472l4.664-1.914M139.479 9.289c-.765.188-1.113 1.17-1.113 1.63-.097 1.422-.166 2.064-.052 3.645.297 2.348 1.416 2.233 1.826 2.155.509-.063 1.496-.576 1.496-1.774V9.918c0-.58-.378-.672-.378-.672-.627-.097-1.172-.13-1.78.043zm-2.703-.42c.924-.605 2.164-1.705 3.873-1.705h5.027v10.067c0 .925.792 1.687.792 1.687h-4.832v-1.35c-1.505.673-3.25 2.061-5.059 1.329-2.46-1.386-2.047-4.524-1.987-7.016.065-1.341 1.135-2.242 2.186-3.012zM108.431 9.288c-.76.19-1.111 1.172-1.111 1.633-.095 1.422-.164 2.061-.05 3.642.297 2.345 1.415 2.235 1.825 2.154.51-.064 1.496-.573 1.496-1.77V9.912c0-.574-.377-.669-.377-.669-.632-.094-1.173-.128-1.783.044zm-2.701-.418c.924-.604 2.166-1.706 3.874-1.706h5.027V17.23c0 .924.792 1.69.792 1.69h-4.832v-1.356c-1.504.678-3.249 2.063-5.058 1.334-2.458-1.39-2.05-4.529-1.987-7.017.065-1.344 1.136-2.24 2.184-3.01zM154.629 1.835c1.212-.597 3.096-1.599 4.098-.644.541.6.653 1.736.174 2.61-.868 1.202-2.463 1.756-3.997 1.771a1.275 1.275 0 0 1-1.046-.75c-.41-1.017-.323-2.398.771-2.987M159.315 5.572l.004 11.743c0 .988.681 1.79.681 1.79h-4.837V9.393c0-1.305-.735-1.786-.735-1.786l4.887-2.036"/>
    </g>
</svg>
