<svg xmlns="http://www.w3.org/2000/svg" width="18" height="18" viewBox="0 0 18 18">
    <path fill="#7B797B" fill-rule="evenodd" d="M14.47 13.091c2.523-3.229 2.258-7.828-.641-10.725A8.053 8.053 0 0 0 8.099 0c-2.17 0-4.205.84-5.732 2.366A8.043 8.043 0 0 0 0 8.093c0 2.167.841 4.202 2.367 5.727a8.053 8.053 0 0 0 5.731 2.366 8.004 8.004 0 0 0 4.979-1.725l3.208 3.251 1.416-1.415-3.23-3.206zm-.264-4.998a6.05 6.05 0 0 1-1.793 4.312 6.096 6.096 0 0 1-8.63 0A6.092 6.092 0 0 1 1.99 8.093a6.05 6.05 0 0 1 1.793-4.312 6.1 6.1 0 0 1 4.315-1.792c1.637 0 3.164.641 4.315 1.792a6.056 6.056 0 0 1 1.793 4.312z"/>
</svg>
