<?xml version="1.0" encoding="utf-8"?>
<!-- Generator: Adobe Illustrator 19.2.1, SVG Export Plug-In . SVG Version: 6.00 Build 0)  -->
<svg version="1.1" id="Layer_1" xmlns="http://www.w3.org/2000/svg" xmlns:xlink="http://www.w3.org/1999/xlink" x="0px" y="0px"
    viewBox="0 0 32 29" style="enable-background:new 0 0 32 29;" xml:space="preserve">
<style type="text/css">
    .st0{fill:#FFFFFF;}
</style>
<title>Group 2</title>
<desc>Created with Sketch.</desc>
<g>
    <path class="st0" d="M14,27C7.3,27,1.9,21.5,1.9,14.9C1.9,8.2,7.3,2.8,14,2.8c2.4,0,5.1,1,7.3,2.5H18v1.9h5.3
        c0.5,0,0.9-0.4,0.9-0.9V1h-1.9v2.8C19.8,2,16.7,0.9,14,0.9c-7.7,0-14,6.3-14,14c0,7.7,6.3,14,14,14c3.6,0,7-1.4,9.6-3.9l-1.3-1.3
        C20,25.8,17.1,27,14,27z"/>
    <path class="st0" d="M12.3,17.8c-0.7,0-1.1-0.2-1.4-0.6c-0.1-0.2-0.2-0.6-0.3-1.1h-1c0,0.7,0.2,1.3,0.6,1.8s1.1,0.8,2,0.8
        c0.9,0,1.6-0.2,2.1-0.7c0.5-0.5,0.7-1.1,0.7-1.8c0-0.5-0.1-0.9-0.3-1.2c-0.2-0.3-0.6-0.5-1-0.7c0.3-0.1,0.5-0.2,0.6-0.4
        c0.3-0.3,0.4-0.7,0.4-1.2c0-0.7-0.2-1.2-0.7-1.5c-0.4-0.4-1.1-0.5-1.8-0.5c-1,0-1.7,0.4-2.1,1.1c-0.2,0.4-0.3,0.9-0.3,1.5h1
        c0-0.4,0.1-0.8,0.2-1c0.3-0.4,0.7-0.7,1.4-0.7c0.4,0,0.7,0.1,1,0.3c0.3,0.2,0.4,0.5,0.4,0.9c0,0.5-0.2,0.9-0.6,1.1
        c-0.2,0.1-0.5,0.2-0.9,0.2c-0.1,0-0.2,0-0.2,0c-0.1,0-0.2,0-0.3,0v0.9c0.1,0,0.1,0,0.2,0s0.1,0,0.2,0c0.6,0,1,0.1,1.4,0.3
        c0.3,0.2,0.5,0.6,0.5,1.1c0,0.4-0.2,0.8-0.5,1.1C13.3,17.6,12.9,17.8,12.3,17.8z"/>
    <path class="st0" d="M18.9,11.5c0.5,0,0.8,0.2,1.1,0.5c0.1,0.2,0.2,0.4,0.3,0.7h1c0-0.5-0.2-0.9-0.5-1.4c-0.3-0.5-1-0.7-1.8-0.7
        c-1.2,0-2,0.6-2.5,1.9C16.1,13.2,16,14,16,15c0,1.3,0.3,2.2,0.8,2.8c0.5,0.6,1.2,0.8,1.9,0.8c0.9,0,1.5-0.3,2-0.8
        c0.5-0.5,0.7-1.2,0.7-1.9c0-0.8-0.2-1.5-0.7-1.9c-0.5-0.4-1.1-0.6-1.7-0.6c-0.4,0-0.7,0.1-1,0.2c-0.3,0.2-0.6,0.4-0.8,0.7
        c0-0.9,0.2-1.7,0.5-2.2S18.3,11.5,18.9,11.5z M17.6,14.8c0.3-0.3,0.7-0.4,1.1-0.4c0.6,0,1,0.2,1.2,0.5c0.2,0.4,0.3,0.7,0.3,1.1
        c0,0.5-0.1,0.9-0.4,1.2s-0.6,0.5-1.2,0.5c-0.5,0-0.9-0.2-1.2-0.5c-0.3-0.3-0.4-0.8-0.4-1.2C17.1,15.5,17.3,15,17.6,14.8z"/>
    <path class="st0" d="M24.8,10.6c-1.1,0-1.9,0.6-2.3,1.8c-0.2,0.6-0.3,1.4-0.3,2.3c0,1.1,0.2,2.1,0.6,2.7c0.5,0.8,1.2,1.2,2.1,1.2
        c1,0,1.8-0.5,2.2-1.5c0.3-0.7,0.5-1.6,0.5-2.6c0-1.1-0.2-2-0.5-2.6C26.6,11.1,25.8,10.6,24.8,10.6z M26,17.1
        c-0.3,0.5-0.7,0.7-1.2,0.7c-0.6,0-1.1-0.4-1.3-1.1c-0.2-0.5-0.3-1.1-0.3-1.9c0-1.1,0.1-1.9,0.4-2.4s0.7-0.8,1.3-0.8
        c0.6,0,1.1,0.3,1.3,0.9s0.3,1.3,0.3,2.2C26.5,15.8,26.3,16.6,26,17.1z"/>
    <path class="st0" d="M31.4,11.1c-0.3-0.3-0.7-0.5-1.2-0.5c-0.5,0-0.8,0.2-1.2,0.5c-0.3,0.3-0.5,0.7-0.5,1.2c0,0.4,0.2,0.8,0.5,1.1
        c0.3,0.3,0.7,0.5,1.2,0.5c0.4,0,0.8-0.2,1.1-0.5c0.3-0.3,0.5-0.7,0.5-1.2C31.9,11.8,31.7,11.4,31.4,11.1z M31,13
        c-0.2,0.2-0.5,0.3-0.7,0.3c-0.3,0-0.5-0.1-0.7-0.3s-0.3-0.5-0.3-0.7c0-0.3,0.1-0.5,0.3-0.7c0.2-0.2,0.5-0.3,0.7-0.3
        s0.5,0.1,0.7,0.3s0.3,0.5,0.3,0.7C31.3,12.6,31.2,12.8,31,13z"/>
</g>
</svg>