<?xml version="1.0" encoding="utf-8"?>
<!-- Generator: Adobe Illustrator 23.0.3, SVG Export Plug-In . SVG Version: 6.00 Build 0)  -->
<svg version="1.1" id="Light" xmlns="http://www.w3.org/2000/svg" xmlns:xlink="http://www.w3.org/1999/xlink" x="0px" y="0px"
    viewBox="0 0 24 24" style="enable-background:new 0 0 24 24;" xml:space="preserve">
<title>arrow-thick-right</title>
<path d="M23.6,11.3L13.4,1.1c-0.2-0.2-0.4-0.3-0.7-0.3c0,0,0,0,0,0c-0.3,0-0.5,0.1-0.7,0.3L9.2,3.8c-0.4,0.4-0.4,1,0,1.4L12.9,9H1.1
    c-0.6,0-1,0.4-1,1v4c0,0.6,0.4,1,1,1h11.8l-3.7,3.8c-0.4,0.4-0.4,1,0,1.4l2.8,2.8c0.2,0.2,0.5,0.3,0.7,0.3s0.5-0.1,0.7-0.3
    l10.2-10.2c0.2-0.2,0.3-0.4,0.3-0.7C23.9,11.7,23.8,11.5,23.6,11.3z M12.7,22.2l-2.8-2.7l4.5-4.6c0.1-0.1,0.2-0.4,0.1-0.5
    S14.3,14,14.1,14h-13v-4h13c0.2,0,0.4-0.1,0.5-0.3c0.1-0.2,0-0.4-0.1-0.5L9.9,4.5l2.8-2.8c0,0,0,0,0,0L13,1.4l-0.4,0.4L22.9,12
    L12.7,22.2z"/>
</svg>